<svg width="19" height="14" viewBox="0 0 19 14" fill="none" xmlns="http://www.w3.org/2000/svg">
<g clip-path="url(#clip0_887_442)">
<path d="M2.10624 9.71125C2.60657 9.65044 3.18452 9.84456 3.54857 10.1916C3.6307 10.2699 3.71495 10.3544 3.80474 10.4227C4.82844 10.4426 5.88667 10.43 6.91229 10.4301L12.3205 10.4303L15.7006 10.4301C16.2908 10.43 17.0664 10.4515 17.6428 10.4125C17.6789 10.4349 17.7194 10.4639 17.7549 10.4882C17.8067 10.6403 17.8308 10.8118 17.8737 10.9299C18.0311 11.3633 18.2107 11.7911 18.3702 12.2241C18.4875 12.5424 18.5926 12.6839 18.6236 13.0264C18.3864 12.9854 17.9559 12.9979 17.7002 12.9978L16.2358 12.9978L7.5974 12.9977L5.00549 12.9985L4.30661 12.9977C3.71659 12.9964 3.85151 12.9795 3.40719 13.3503C3.04744 13.6505 2.41628 13.7389 1.96281 13.6794C1.59524 13.6311 1.02649 13.2931 0.805807 12.987C0.607624 12.7121 0.436605 12.3547 0.384712 12.0174C0.251723 10.8565 0.928918 9.88509 2.10624 9.71125Z" fill="#BAC8DE"/>
<path d="M2.11332 0.265659C2.19504 0.252438 2.52807 0.257533 2.61371 0.269059C3.11356 0.33633 3.52749 0.632307 3.83661 1.01066C4.0872 0.998118 4.41035 1.0089 4.66916 1.00919L6.24356 1.00946L11.1255 1.00962L13.3499 1.00938C13.6517 1.00891 14.0226 0.996684 14.3172 1.02242C14.4238 1.03173 14.6798 1.79999 14.7048 1.91098C14.748 2.10229 15.2957 3.47969 15.2759 3.55456C15.18 3.58934 13.2038 3.56799 12.9263 3.56796L6.91376 3.56774H5.00391C4.62461 3.56782 4.23633 3.55991 3.85727 3.58398C3.6568 3.61165 3.52276 3.85898 3.34352 3.96071C2.60179 4.38176 1.67946 4.32869 1.024 3.76992C0.647171 3.44869 0.405632 2.90347 0.369443 2.40983C0.327142 1.83285 0.502823 1.28344 0.890906 0.846406C1.18348 0.528 1.67898 0.292723 2.11332 0.265659Z" fill="#BAC8DE"/>
<path d="M2.04742 5.6403C2.18862 5.6305 2.39769 5.63666 2.54423 5.63684L3.43081 5.63706L6.20688 5.63716L8.14702 5.63717C8.4413 5.63714 8.77055 5.62998 9.06255 5.6433C9.17205 5.64829 9.47018 5.80263 9.565 5.87632C9.79769 6.05717 10.0955 6.46176 10.1266 6.76401C10.169 7.17789 10.1502 7.46917 9.89994 7.81232C9.64882 8.15662 9.39787 8.33304 8.9737 8.39235C8.88368 8.39867 8.79352 8.40273 8.7033 8.40454C8.21595 8.41499 7.69842 8.40529 7.20855 8.40522L4.37388 8.40589L2.98798 8.40593C2.64744 8.40587 2.1439 8.43085 1.83159 8.35206C1.49391 8.26687 1.02205 7.77924 0.933679 7.4346C0.921777 7.38817 0.931883 7.30901 0.922423 7.26582C0.759522 6.5221 1.18508 5.90549 1.87709 5.64978C1.90232 5.64045 2.014 5.64078 2.04742 5.6403Z" fill="#BAC8DE"/>
<path d="M12.4118 5.63975C12.8896 5.61603 13.3864 5.63861 13.8661 5.63871C14.5416 5.63885 15.2205 5.62352 15.8956 5.63468C15.9265 5.63518 15.9585 5.63396 15.9859 5.65032C15.9894 5.6523 15.9924 5.65469 15.9956 5.65675C15.9991 5.65893 16.0028 5.66077 16.0062 5.66304C16.1108 5.73274 16.3894 6.73307 16.4593 6.92062C16.5638 7.20168 16.6843 7.4798 16.795 7.75892C16.8642 7.93331 16.9473 8.12289 16.9797 8.30839C16.9859 8.34374 16.9918 8.3653 16.9702 8.39508C16.8633 8.41217 16.6632 8.40518 16.5472 8.4048L15.7978 8.40215L13.4927 8.40267C13.0622 8.40283 12.609 8.42597 12.1843 8.3641C12.1376 8.35303 12.086 8.33214 12.0428 8.31263C11.5083 8.05784 11.2187 7.61237 11.2056 7.02061C11.1898 6.31303 11.565 5.89239 12.2059 5.65663C12.2524 5.63953 12.3589 5.64064 12.4118 5.63975Z" fill="#BAC8DE"/>
</g>
<defs>
<clipPath id="clip0_887_442">
<rect width="18.9766" height="14" fill="white"/>
</clipPath>
</defs>
</svg>
